<?xml version="1.0" encoding="UTF-8"?>
<svg width="270px" height="95px" viewBox="0 0 270 95" version="1.1" xmlns="http://www.w3.org/2000/svg" xmlns:xlink="http://www.w3.org/1999/xlink">
    <!-- Generator: Sketch 40.3 (33839) - http://www.bohemiancoding.com/sketch -->
    <title>Rectangle 1 + Google Play Icon + Imported Layers + Download on the + Imported Layers</title>
    <desc>Created with Sketch.</desc>
    <defs></defs>
    <g id="Page-1" stroke="none" stroke-width="1" fill="none" fill-rule="evenodd">
        <g id="Get-app" transform="translate(-223.000000, -1113.000000)">
            <g id="Rectangle-1-+-Google-Play-Icon-+-Imported-Layers-+-Download-on-the-+-Imported-Layers" transform="translate(223.000000, 1099.000000)">
                <rect id="Rectangle-1" fill="#000000" x="0" y="14" width="270" height="94.2545455" rx="10"></rect>
                <text id="Download-on-the-App" font-family="MyriadPro-Regular, Myriad Pro" font-size="18" font-weight="normal" line-spacing="47" fill="#FFFFFF">
                    <tspan x="66" y="14">Download on the</tspan>
                    <tspan x="196.482" y="14" font-size="30"></tspan>
                    <tspan x="66" y="61" font-family="MyriadPro-Semibold, Myriad Pro" font-size="38" font-weight="500">App Store</tspan>
                </text>
                <path d="M41.8950299,59.9472208 C46.9853821,59.9472208 50.2404518,64.8759855 50.2404518,64.8759855 C50.2404518,64.8759855 45.2749635,67.5724883 45.2749635,73.4286504 C45.2749635,80.3792499 51.5127708,82.4010847 51.5127708,82.4010847 C51.5127708,82.4010847 46.5892625,94.0917153 41.0608106,94.0917153 C37.9521329,94.0917153 37.7443854,92.302001 33.6131163,92.302001 C30.0254352,92.302001 28.8155482,94.0917153 26.0825382,94.0917153 C20.8662458,94.0917153 14.127907,82.6961164 14.127907,73.4286504 C14.127907,63.8021569 20.950206,59.9472208 25.2267907,59.9472208 C28.982392,59.9472208 30.5464186,62.1588738 33.5711362,62.1588738 C36.1168505,62.1588738 38.1200532,59.9472208 41.8950299,59.9472208 L41.8950299,59.9472208 Z M41.019907,50.1309091 C41.7701661,54.8492468 37.4935814,60.6848 32.3827774,60.4949818 C31.6314419,54.4913039 37.1394419,50.4476343 41.019907,50.1309091 L41.019907,50.1309091 Z" id="Imported-Layers" fill="#FFFFFF"></path>
            </g>
        </g>
    </g>
</svg>