<?xml version="1.0" encoding="UTF-8"?>
<svg width="1440px" height="826px" viewBox="0 0 1440 826" version="1.1" xmlns="http://www.w3.org/2000/svg" xmlns:xlink="http://www.w3.org/1999/xlink">
    <!-- Generator: Sketch 41.2 (35397) - http://www.bohemiancoding.com/sketch -->
    <title>Layer_1</title>
    <desc>Created with Sketch.</desc>
    <defs>
        <linearGradient x1="50.0029467%" y1="99.9786759%" x2="50.0029467%" y2="0.00278943461%" id="linearGradient-1">
            <stop stop-color="#005B5D" stop-opacity="0.5" offset="2.260045%"></stop>
            <stop stop-color="#005C61" stop-opacity="0.5543" offset="9.492564%"></stop>
            <stop stop-color="#005C66" stop-opacity="0.6493" offset="22.15%"></stop>
            <stop stop-color="#005B69" stop-opacity="0.7505" offset="35.65%"></stop>
            <stop stop-color="#005B6B" stop-opacity="0.8614" offset="50.42%"></stop>
            <stop stop-color="#005A6B" offset="68.9%"></stop>
            <stop stop-color="#165568" stop-opacity="0.9773" offset="70.07%"></stop>
            <stop stop-color="#274860" stop-opacity="0.9158" offset="73.26%"></stop>
            <stop stop-color="#2B3D58" stop-opacity="0.8484" offset="76.75%"></stop>
            <stop stop-color="#2C3551" stop-opacity="0.7741" offset="80.61%"></stop>
            <stop stop-color="#2C2E4C" stop-opacity="0.689" offset="85.02%"></stop>
            <stop stop-color="#2B2A49" stop-opacity="0.5841" offset="90.45%"></stop>
            <stop stop-color="#2B2948" stop-opacity="0.4" offset="100%"></stop>
        </linearGradient>
        <linearGradient x1="49.9990072%" y1="0.020468909%" x2="49.9990072%" y2="100.012827%" id="linearGradient-2">
            <stop stop-color="#04B4A0" offset="0%"></stop>
            <stop stop-color="#12888D" offset="33.51%"></stop>
            <stop stop-color="#2F8089" offset="38.51%"></stop>
            <stop stop-color="#477182" offset="48.75%"></stop>
            <stop stop-color="#53657D" offset="59.57%"></stop>
            <stop stop-color="#595D79" offset="71.1%"></stop>
            <stop stop-color="#5D5877" offset="83.81%"></stop>
            <stop stop-color="#5E5676" offset="100%"></stop>
        </linearGradient>
    </defs>
    <g id="Page-1" stroke="none" stroke-width="1" fill="none" fill-rule="evenodd">
        <g id="Desktop-HD">
            <g id="Layer_1" transform="translate(-265.000000, -154.000000)">
                <path d="M0.0661838571,185.188681 C0.0661838571,185.188681 23.1166413,748.445284 253.621216,841.654869 C484.125791,934.864455 514.859734,728.449829 658.387249,788.128573 C801.914764,847.807317 930.997326,909.024174 1037.02943,875.18571 C1143.06153,841.654869 1332.07529,873.647598 1484.20831,970.24103 C1636.34132,1066.83446 1862.23581,370.06974 1779.25416,164.885603 C1696.57985,-40.2985336 0.0661838571,185.188681 0.0661838571,185.188681 L0.0661838571,185.188681 Z" id="Shape" fill="#B3A394" opacity="0.1"></path>
                <path d="M1346.2129,663.233881 C1387.70372,903.179348 1574.5661,663.233881 1695.3505,884.722005 C1816.13489,1106.21013 1779.5615,159.963645 1779.5615,159.963645 L916.859712,149.504483 C916.859712,149.504483 1304.72208,423.288414 1346.2129,663.233881 Z" id="Shape" fill="#31BFC2" opacity="0.67"></path>
                <path d="M967.570719,186.111548 C967.570719,186.111548 1056.69915,615.860032 1195.0019,672.770175 C1333.30464,729.680318 1428.57987,635.855488 1450.09363,568.793806 C1471.60739,501.732124 1514.63491,501.732124 1579.17619,501.732124 C1643.71747,501.732124 1635.11197,554.643176 1685.82297,576.484366 C1736.53398,598.325556 1947.98351,478.968067 1947.98351,217.18141 C1947.98351,-44.6052471 967.570719,186.111548 967.570719,186.111548 L967.570719,186.111548 Z" id="Shape" fill="url(#linearGradient-1)" opacity="0.7"></path>
                <path d="M63.9927859,139.968189 C63.9927859,139.968189 152.813882,666.617727 389.772585,641.700313 C626.731287,616.7829 810.212929,231.33204 810.212929,231.33204 L63.9927859,139.968189 L63.9927859,139.968189 Z" id="Shape" fill="#28316E" opacity="0.71"></path>
                <path d="M861.538614,86.1342703 C861.538614,86.1342703 931.304665,364.532537 1097.88264,346.99806 C1264.46061,329.463584 1388.93308,121.510846 1388.93308,121.510846 L861.538614,86.1342703 L861.538614,86.1342703 Z" id="Shape" fill="#F36E5E" opacity="0.65"></path>
                <path d="M705.717522,99.3620332 C705.717522,99.3620332 799.148709,635.547866 963.882645,632.779264 C1128.61658,630.010663 939.295491,143.044413 1246.63492,99.3620332 C1553.97436,55.6796533 705.717522,99.3620332 705.717522,99.3620332 L705.717522,99.3620332 Z" id="Shape" fill="#2A3274" opacity="0.9"></path>
                <path d="M1639.10738,149.504483 C1639.10738,149.504483 1646.48353,318.389178 1489.43308,350.381907 C1332.38263,382.374636 1298.57529,211.336585 1103.10741,198.724066 C907.639529,186.111548 698.648715,419.596945 526.231293,442.976247 C354.121211,466.355549 63.9927859,149.504483 63.9927859,149.504483 L1639.10738,149.504483 L1639.10738,149.504483 Z" id="Shape" fill="#DD1F26" opacity="0.79"></path>
                <path d="M84.5845279,0.615244788 C84.5845279,0.615244788 422.657904,193.802108 444.171664,397.14051 C465.685425,600.478913 531.456063,713.068709 665.456056,711.838219 C776.712931,710.915352 1286.89639,284.550714 846.171643,142.121546 C405.446896,-0.307622394 84.5845279,0.615244788 84.5845279,0.615244788 L84.5845279,0.615244788 Z" id="Shape" fill="url(#linearGradient-2)" opacity="0.72"></path>
                <path d="M233.644153,131.354762 C233.644153,131.354762 533.3001,480.506179 738.295502,409.753029 C943.290903,338.999878 991.543194,187.957283 991.543194,187.957283 L906.410171,28.6088826 L233.644153,131.354762 L233.644153,131.354762 Z" id="Shape" fill="#31BFC2" opacity="0.48"></path>
            </g>
        </g>
    </g>
</svg>