<?xml version="1.0" encoding="utf-8"?>
<!-- Generator: Adobe Illustrator 21.0.0, SVG Export Plug-In . SVG Version: 6.00 Build 0)  -->
<svg version="1.1" id="Layer_1" xmlns="http://www.w3.org/2000/svg" xmlns:xlink="http://www.w3.org/1999/xlink" x="0px" y="0px"
	 viewBox="0 0 45 45" style="enable-background:new 0 0 45 45;" xml:space="preserve">
<style type="text/css">
	.st0{fill:#00ADB2;}
	.st1{fill:#40BDFF;}
	.st2{fill:#FF6643;}
	.st3{fill:#FFDD00;}
	.st4{fill:#FF5F78;}
	.st5{fill:none;stroke:#000000;stroke-miterlimit:10;}
	.st6{display:none;}
	.st7{fill:#D10000;}
	.st8{display:none;fill:#FFFFFF;}
	.st9{fill:#FFFFFF;}
	.st10{fill:#33A0CE;}
	.st11{fill:#FFE33E;}
	.st12{fill:#1B227D;}
	.st13{fill:#0D95D1;}
	.st14{fill:#0F66CE;}
	.st15{fill:none;}
	.st16{stroke:#000000;stroke-width:0.3;stroke-miterlimit:10;}
	.st17{fill:#21A7AD;}
	.st18{fill:#FFFFFF;stroke:#FFFFFF;stroke-width:0.3;stroke-miterlimit:10;}
	.st19{fill:#0084B0;}
	.st20{fill:#FFFFFF;stroke:#000000;stroke-miterlimit:10;}
	.st21{stroke:#000000;stroke-width:0.2;stroke-miterlimit:10;}
	.st22{fill:none;stroke:#160039;stroke-miterlimit:10;}
	.st23{fill:#FC8700;}
	.st24{fill:#2295FC;}
</style>
<circle class="st5" cx="22.5" cy="22.5" r="20"/>
<g>
	<path d="M25,9.6H11.7c-1.1,0-2.1,0.9-2.1,2.1v21.6c0,1.1,0.9,2.1,2.1,2.1H25c1.1,0,2.1-0.9,2.1-2.1V11.7C27.1,10.6,26.1,9.6,25,9.6
		z M26.2,33.3c0,0.7-0.6,1.2-1.2,1.2H11.7c-0.7,0-1.2-0.6-1.2-1.2V11.7c0-0.7,0.6-1.2,1.2-1.2H25c0.7,0,1.2,0.6,1.2,1.2L26.2,33.3
		L26.2,33.3z"/>
	<path d="M11.7,22.9H15v-3.3h-3.3V22.9z M12.5,20.4h1.7v1.7h-1.7V20.4z"/>
	<path d="M21.7,22.9H25v-3.3h-3.3V22.9z M22.5,20.4h1.7v1.7h-1.7V20.4z"/>
	<path d="M16.7,22.9H20v-3.3h-3.3V22.9z M17.5,20.4h1.7v1.7h-1.7V20.4z"/>
	<path d="M11.7,27.9H15v-3.3h-3.3V27.9z M12.5,25.4h1.7v1.7h-1.7V25.4z"/>
	<path d="M21.7,32.9H25v-8.3h-3.3V32.9z M22.5,25.4h1.7V32h-1.7V25.4z"/>
	<path d="M16.7,27.9H20v-3.3h-3.3V27.9z M17.5,25.4h1.7v1.7h-1.7V25.4z"/>
	<path d="M11.7,32.9H15v-3.3h-3.3V32.9z M12.5,30.4h1.7V32h-1.7V30.4z"/>
	<path d="M16.7,32.9H20v-3.3h-3.3V32.9z M17.5,30.4h1.7V32h-1.7V30.4z"/>
	<path d="M11.7,17.9H25v-5.8H11.7V17.9z M12.5,13h11.6v4.1H12.5V13z"/>
	<rect x="17.9" y="14.6" width="0.8" height="0.8"/>
	<rect x="19.6" y="14.6" width="0.8" height="0.8"/>
	<rect x="16.3" y="14.6" width="0.8" height="0.8"/>
	<path d="M32.5,9.6c-1.6,0-2.9,1.3-2.9,2.9v0.8h-1.7V20h0.8v-5.8h0.8v18l2.9,2.9l2.9-2.9V12.5C35.4,10.9,34.1,9.6,32.5,9.6z
		 M32.5,33.9L31,32.5h3L32.5,33.9z M34.5,31.6h-4.1v-2.5h4.1V31.6z M34.5,28.3h-4.1V14.2h4.1V28.3z M34.5,13.4h-4.1v-0.8
		c0-1.1,0.9-2.1,2.1-2.1c1.1,0,2.1,0.9,2.1,2.1L34.5,13.4L34.5,13.4z"/>
</g>
</svg>
