<?xml version="1.0" encoding="utf-8"?>
<!-- Generator: Adobe Illustrator 21.0.0, SVG Export Plug-In . SVG Version: 6.00 Build 0)  -->
<svg version="1.1" id="Layer_1" xmlns="http://www.w3.org/2000/svg" xmlns:xlink="http://www.w3.org/1999/xlink" x="0px" y="0px"
	 viewBox="0 0 45 45" style="enable-background:new 0 0 45 45;" xml:space="preserve">
<style type="text/css">
	.st0{fill:#00ADB2;}
	.st1{fill:#40BDFF;}
	.st2{fill:#FF6643;}
	.st3{fill:#FFDD00;}
	.st4{fill:#FF5F78;}
	.st5{fill:none;stroke:#000000;stroke-miterlimit:10;}
	.st6{display:none;}
	.st7{fill:#D10000;}
	.st8{display:none;fill:#FFFFFF;}
	.st9{fill:#FFFFFF;}
	.st10{fill:#33A0CE;}
	.st11{fill:#FFE33E;}
	.st12{fill:#1B227D;}
	.st13{fill:#0D95D1;}
	.st14{fill:#0F66CE;}
	.st15{fill:none;}
	.st16{stroke:#000000;stroke-width:0.3;stroke-miterlimit:10;}
	.st17{fill:#21A7AD;}
	.st18{fill:#FFFFFF;stroke:#FFFFFF;stroke-width:0.3;stroke-miterlimit:10;}
	.st19{fill:#0084B0;}
	.st20{fill:#FFFFFF;stroke:#000000;stroke-miterlimit:10;}
	.st21{stroke:#000000;stroke-width:0.2;stroke-miterlimit:10;}
	.st22{fill:none;stroke:#160039;stroke-miterlimit:10;}
	.st23{fill:#FC8700;}
	.st24{fill:#2295FC;}
</style>
<circle class="st5" cx="22.5" cy="22.5" r="20"/>
<g transform="translate(0,-952.36218)">
	<path d="M22.3,966.1l-14.2,5.6c-0.4,0.2-0.4,0.8,0,0.9l4.8,1.9c0,0.1,0,0.1,0,0.2v5.1c0,0.6,0.4,1.1,0.9,1.5
		c0.5,0.4,1.2,0.8,2.1,1.1c1.7,0.6,4,1,6.6,1s4.9-0.4,6.6-1c0.9-0.3,1.6-0.7,2.1-1.1c0.5-0.4,0.9-0.9,0.9-1.5v-5.1
		c0-0.1,0-0.1,0-0.2l3.1-1.2v3.1c-0.3,0.2-0.5,0.5-0.5,0.9c0,0.6,0.5,1,1,1s1-0.5,1-1c0-0.4-0.2-0.7-0.5-0.9v-3.5l0.7-0.3
		c0.4-0.2,0.4-0.8,0-0.9l-14.2-5.6C22.5,966,22.4,966.1,22.3,966.1z M22.5,967.1l12.8,5l-12.8,5l-12.8-5L22.5,967.1z M13.9,974.9
		l8.4,3.3c0.1,0,0.3,0,0.4,0l8.4-3.3v4.9c0,0.1-0.1,0.3-0.5,0.6c-0.4,0.3-1,0.6-1.8,0.9c-1.6,0.6-3.8,1-6.3,1s-4.7-0.4-6.3-1
		c-0.8-0.3-1.4-0.6-1.8-0.9c-0.4-0.3-0.5-0.5-0.5-0.6V974.9z"/>
</g>
</svg>
