<?xml version="1.0" encoding="utf-8"?>
<!-- Generator: Adobe Illustrator 21.0.0, SVG Export Plug-In . SVG Version: 6.00 Build 0)  -->
<svg version="1.1" id="Layer_1" xmlns="http://www.w3.org/2000/svg" xmlns:xlink="http://www.w3.org/1999/xlink" x="0px" y="0px"
	 viewBox="0 0 45 45" style="enable-background:new 0 0 45 45;" xml:space="preserve">
<style type="text/css">
	.st0{fill:#00ADB2;}
	.st1{fill:#40BDFF;}
	.st2{fill:#FF6643;}
	.st3{fill:#FFDD00;}
	.st4{fill:#FF5F78;}
	.st5{fill:none;stroke:#000000;stroke-miterlimit:10;}
	.st6{display:none;}
	.st7{fill:#D10000;}
	.st8{display:none;fill:#FFFFFF;}
	.st9{fill:#FFFFFF;}
	.st10{fill:#33A0CE;}
	.st11{fill:#FFE33E;}
	.st12{fill:#1B227D;}
	.st13{fill:#0D95D1;}
	.st14{fill:#0F66CE;}
	.st15{fill:none;}
	.st16{stroke:#000000;stroke-width:0.3;stroke-miterlimit:10;}
	.st17{fill:#21A7AD;}
	.st18{fill:#FFFFFF;stroke:#FFFFFF;stroke-width:0.3;stroke-miterlimit:10;}
	.st19{fill:#0084B0;}
	.st20{fill:#FFFFFF;stroke:#000000;stroke-miterlimit:10;}
	.st21{stroke:#000000;stroke-width:0.2;stroke-miterlimit:10;}
	.st22{fill:none;stroke:#160039;stroke-miterlimit:10;}
	.st23{fill:#FC8700;}
	.st24{fill:#2295FC;}
</style>
<circle class="st5" cx="22.5" cy="22.5" r="20"/>
<g transform="translate(0,-952.36218)">
	<path class="st16" d="M19.4,963.2c-0.4,0-0.6,0.3-0.7,0.6c-0.3,0.8-0.6,1.8-0.9,2.7h-3c0-0.2,0-0.5,0-0.7c-0.1-0.4-0.4-0.5-0.8-0.6
		h-2.4c-0.4,0-0.6,0.3-0.8,0.6c0,0.2,0,0.5,0,0.7c-1.3,0.1-2.3,1.3-2.3,2.6v14.9c0,1.4,1.1,2.6,2.6,2.6h22.8c1.4,0,2.6-1.2,2.6-2.6
		V969c0-1.4-1.1-2.6-2.6-2.6h-6.6c-0.3-0.9-0.6-1.9-0.9-2.7c-0.1-0.4-0.4-0.5-0.7-0.6L19.4,963.2z M25.7,963.8c0,0,0.6,1.8,0.9,2.6
		h-8.2c0.3-0.8,0.9-2.6,0.9-2.6C21.5,963.8,23.8,963.8,25.7,963.8z M14.1,965.8c0,0.3,0,0.4,0,0.6h-2.6c0,0,0-0.3,0-0.6
		C12.4,965.8,13.3,965.8,14.1,965.8L14.1,965.8z M11.1,967.1c7.8,0,15.8,0,22.8,0c1.1,0,1.9,0.9,1.9,1.9v14.9c0,1.1-0.8,1.9-1.9,1.9
		H11.1c-1.1,0-1.9-0.9-1.9-1.9V969C9.2,968.1,10.2,967.1,11.1,967.1L11.1,967.1z M22.4,968.7c-2.5,0-4.9,1.3-6.4,3.5
		c-0.1,0.1-0.1,0.4,0.1,0.5c0.2,0.1,0.4,0,0.5-0.1c2.2-3.3,6.6-4.2,9.9-2c2.6,1.7,3.8,4.8,3,7.8c-0.1,0.2,0.1,0.4,0.3,0.4
		c0.2,0,0.3-0.1,0.3-0.3c0.9-3.2-0.4-6.7-3.2-8.5C25.4,969.1,23.9,968.7,22.4,968.7z M22.5,971.3c-2.9,0-5.2,2.3-5.2,5.2
		c0,2.9,2.3,5.2,5.2,5.2c2.9,0,5.2-2.3,5.2-5.2C27.7,973.6,25.4,971.3,22.5,971.3z M22.5,971.9c2.5,0,4.5,2,4.5,4.5s-2,4.5-4.5,4.5
		s-4.5-2-4.5-4.5S20,971.9,22.5,971.9z M15,974.5c-0.9,3.3,0.5,6.8,3.3,8.6c3.6,2.3,8.4,1.2,10.7-2.4c0.1-0.1,0.1-0.4-0.1-0.5
		c-0.2-0.1-0.4,0-0.5,0.1c-2.1,3.3-6.5,4.3-9.8,2.2c-2.6-1.7-3.9-4.9-3.1-7.9c0.1-0.2-0.1-0.4-0.3-0.4C15,974.2,15.1,974.4,15,974.5
		L15,974.5z"/>
</g>
</svg>
