<?xml version="1.0" encoding="utf-8"?>
<!-- Generator: Adobe Illustrator 21.0.0, SVG Export Plug-In . SVG Version: 6.00 Build 0)  -->
<svg version="1.1" id="Layer_1" xmlns="http://www.w3.org/2000/svg" xmlns:xlink="http://www.w3.org/1999/xlink" x="0px" y="0px"
	 viewBox="0 0 45 45" style="enable-background:new 0 0 45 45;" xml:space="preserve">
<style type="text/css">
	.st0{fill:#00ADB2;}
	.st1{fill:#40BDFF;}
	.st2{fill:#FF6643;}
	.st3{fill:#FFDD00;}
	.st4{fill:#FF5F78;}
	.st5{fill:none;stroke:#000000;stroke-miterlimit:10;}
	.st6{display:none;}
	.st7{fill:#D10000;}
	.st8{display:none;fill:#FFFFFF;}
	.st9{fill:#FFFFFF;}
	.st10{fill:#33A0CE;}
	.st11{fill:#FFE33E;}
	.st12{fill:#1B227D;}
	.st13{fill:#0D95D1;}
	.st14{fill:#0F66CE;}
	.st15{fill:none;}
	.st16{stroke:#000000;stroke-width:0.3;stroke-miterlimit:10;}
	.st17{fill:#21A7AD;}
	.st18{fill:#FFFFFF;stroke:#FFFFFF;stroke-width:0.3;stroke-miterlimit:10;}
	.st19{fill:#0084B0;}
	.st20{fill:#FFFFFF;stroke:#000000;stroke-miterlimit:10;}
	.st21{stroke:#000000;stroke-width:0.2;stroke-miterlimit:10;}
	.st22{fill:none;stroke:#160039;stroke-miterlimit:10;}
	.st23{fill:#FC8700;}
	.st24{fill:#2295FC;}
</style>
<circle class="st5" cx="22.5" cy="22.5" r="20"/>
<g>
	<path d="M22.5,21.1c-3.7,0-6.9,2.2-8.6,5.9c-1.3,2.9-1.2,5.9,0.2,7.3c0.7,0.7,1.5,1.1,2.4,1.1c0,0,0,0,0,0c1.4,0,2.6-0.8,3.8-1.5
		c0.8-0.5,1.6-1,2.2-1c0.6,0,1.4,0.5,2.2,1c1.2,0.7,2.5,1.5,3.8,1.5c0.9,0,1.7-0.3,2.4-1c1.4-1.4,1.5-4.5,0.2-7.4
		C29.5,23.3,26.3,21.1,22.5,21.1z M30.3,33.7c-0.5,0.5-1.1,0.8-1.7,0.8c-1.1,0-2.3-0.7-3.3-1.3c-1-0.6-1.9-1.1-2.7-1.1
		c-0.8,0-1.7,0.6-2.7,1.1c-1,0.6-2.2,1.3-3.3,1.3h0c-0.6,0-1.2-0.3-1.8-0.8c-1.1-1.1-1.1-3.8,0-6.3c1.5-3.4,4.4-5.4,7.7-5.4
		c4.9,0,7.1,3.7,7.8,5.3C31.4,29.8,31.4,32.6,30.3,33.7z"/>
	<path d="M18.6,18.8c0.2,0,0.3,0,0.5,0c1.8-0.3,2.8-2.6,2.3-5.2c-0.4-2.3-2-4-3.7-4c-0.2,0-0.3,0-0.5,0c-1.8,0.3-2.8,2.6-2.3,5.2
		C15.4,17.1,16.9,18.8,18.6,18.8z M17.4,10.6c0.1,0,0.2,0,0.3,0c1.2,0,2.4,1.4,2.7,3.2c0.4,2-0.3,3.9-1.6,4.1
		c-1.2,0.2-2.6-1.3-3-3.2C15.5,12.7,16.2,10.8,17.4,10.6z"/>
	<path d="M13.6,18.5c-0.9-1.2-2.1-1.9-3.3-1.9c-0.5,0-1,0.2-1.4,0.4c-1.3,1-1.4,3.1-0.1,4.9c0.9,1.2,2.1,1.9,3.3,1.9
		c0.5,0,1-0.2,1.4-0.4C14.9,22.4,14.9,20.3,13.6,18.5z M13,22.6c-0.2,0.2-0.5,0.3-0.9,0.3c-0.9,0-1.8-0.6-2.5-1.5
		c-1-1.3-1-3-0.1-3.7c0.2-0.2,0.5-0.3,0.9-0.3c0.9,0,1.8,0.6,2.5,1.5C13.8,20.3,13.9,22,13,22.6z"/>
	<path d="M26,18.8c0.2,0,0.3,0,0.5,0c0,0,0,0,0,0c1.7,0,3.2-1.7,3.7-4c0.5-2.5-0.5-4.8-2.3-5.2c-0.2,0-0.3,0-0.5,0
		c-1.7,0-3.2,1.7-3.7,4C23.1,16.2,24.2,18.4,26,18.8z M24.5,13.8c0.4-1.8,1.6-3.2,2.7-3.2c0.1,0,0.2,0,0.3,0c1.3,0.2,2,2.1,1.6,4.1
		c-0.4,2-1.8,3.5-3,3.2C24.9,17.7,24.2,15.8,24.5,13.8z"/>
	<path d="M36.1,17c-0.4-0.3-0.9-0.4-1.4-0.4c-1.2,0-2.4,0.7-3.3,1.9c-1.3,1.8-1.3,3.9,0.1,4.9c0.4,0.3,0.9,0.4,1.4,0.4
		c1.2,0,2.4-0.7,3.3-1.9C37.4,20.1,37.4,18,36.1,17z M35.4,21.4c-0.7,0.9-1.7,1.5-2.5,1.5c-0.3,0-0.6-0.1-0.9-0.3
		c-0.9-0.6-0.8-2.3,0.1-3.7c0.7-0.9,1.7-1.5,2.5-1.5c0.3,0,0.6,0.1,0.9,0.3C36.4,18.4,36.4,20.1,35.4,21.4z"/>
</g>
</svg>
