<?xml version="1.0" encoding="utf-8"?>
<!-- Generator: Adobe Illustrator 21.0.0, SVG Export Plug-In . SVG Version: 6.00 Build 0)  -->
<svg version="1.1" id="Layer_1" xmlns="http://www.w3.org/2000/svg" xmlns:xlink="http://www.w3.org/1999/xlink" x="0px" y="0px"
	 viewBox="0 0 45 45" style="enable-background:new 0 0 45 45;" xml:space="preserve">
<style type="text/css">
	.st0{fill:#00ADB2;}
	.st1{fill:#40BDFF;}
	.st2{fill:#FF6643;}
	.st3{fill:#FFDD00;}
	.st4{fill:#FF5F78;}
	.st5{fill:none;stroke:#000000;stroke-miterlimit:10;}
	.st6{display:none;}
	.st7{fill:#D10000;}
	.st8{display:none;fill:#FFFFFF;}
	.st9{fill:#FFFFFF;}
	.st10{fill:#33A0CE;}
	.st11{fill:#FFE33E;}
	.st12{fill:#1B227D;}
	.st13{fill:#0D95D1;}
	.st14{fill:#0F66CE;}
	.st15{fill:none;}
	.st16{stroke:#000000;stroke-width:0.3;stroke-miterlimit:10;}
	.st17{fill:#21A7AD;}
	.st18{fill:#FFFFFF;stroke:#FFFFFF;stroke-width:0.3;stroke-miterlimit:10;}
	.st19{fill:#0084B0;}
	.st20{fill:#FFFFFF;stroke:#000000;stroke-miterlimit:10;}
	.st21{stroke:#000000;stroke-width:0.2;stroke-miterlimit:10;}
	.st22{fill:none;stroke:#160039;stroke-miterlimit:10;}
	.st23{fill:#FC8700;}
	.st24{fill:#2295FC;}
</style>
<g>
	<path d="M37.2,24.7C37.2,24.7,37.2,24.6,37.2,24.7C37.2,24.6,37.2,24.6,37.2,24.7c0-0.1,0-0.1,0-0.1l0,0l-3.7-8.1
		c0.8-0.2,1.5-0.5,2.3-0.8c0.3-0.1,0.4-0.5,0.3-0.7c-0.1-0.3-0.5-0.4-0.7-0.3l0,0c-1.1,0.6-1.9,0.8-2.6,0.8h-0.1
		c-0.8,0-1.3-0.4-2.1-1c-1.2-0.9-2.8-2-6.2-2.3c0.5-1,0.2-2.2-0.8-2.8c-1-0.5-2.2-0.2-2.8,0.8c-0.3,0.6-0.3,1.4,0,2
		c-3.5,0.3-5.1,1.4-6.3,2.3c-0.7,0.5-1.3,0.9-2.1,1h-0.1c-0.6,0-1.4-0.2-2.6-0.8c-0.3-0.1-0.6,0-0.7,0.3c-0.1,0.3,0,0.6,0.3,0.7
		c0.7,0.4,1.5,0.7,2.3,0.8l-3.7,8.1l0,0c0,0,0,0,0,0.1c0,0,0,0,0,0s0,0,0,0c0,0,0,0,0,0.1l0,0c-0.1,2.5,1.9,4.6,4.4,4.7
		c2.5,0.1,4.6-1.9,4.7-4.4c0-0.1,0-0.2,0-0.3l0,0c0,0,0,0,0-0.1c0,0,0,0,0,0s0,0,0,0c0,0,0,0,0-0.1l0,0l-3.7-8.1
		c0.7-0.2,1.4-0.6,2-1.1c1.5-1.2,3.4-1.9,5.3-2.1v18.6c-1.7,0.1-3,1.4-3,3.1v0.4c0,0.3,0.3,0.6,0.6,0.6h8.9c0.3,0,0.6-0.3,0.6-0.6
		V35c0-1.7-1.3-3-3-3.1V13.3c2,0.1,3.8,0.9,5.4,2.1c0.6,0.5,1.3,0.8,2,1.1l-3.7,8.1l0,0c0,0,0,0,0,0.1c0,0,0,0,0,0s0,0,0,0
		c0,0,0,0,0,0.1l0,0c0.1,2.5,2.2,4.5,4.7,4.4C35.2,29.1,37.1,27.1,37.2,24.7L37.2,24.7C37.2,24.7,37.2,24.7,37.2,24.7z M12.3,17.3
		l3.1,6.9H9.2L12.3,17.3z M12.3,28.1c-1.7,0-3.1-1.2-3.4-2.9h6.7C15.4,26.9,14,28.2,12.3,28.1L12.3,28.1z M21.6,31.9V13.2
		c0.3,0,0.6,0,0.9,0s0.6,0,0.9,0v18.7H21.6z M21.6,11.2c0-0.5,0.4-0.9,0.9-0.9s0.9,0.4,0.9,0.9c0,0.5-0.4,0.9-0.9,0.9l0,0
		C22,12.1,21.6,11.7,21.6,11.2L21.6,11.2z M26.4,34.8h-7.8c0.1-1,0.9-1.8,2-1.8h3.9C25.4,33,26.3,33.8,26.4,34.8L26.4,34.8z
		 M35.8,24.2h-6.2l3.1-6.9L35.8,24.2z M32.6,28.2c-1.7,0-3.1-1.2-3.4-2.9H36C35.7,27,34.3,28.2,32.6,28.2z"/>
</g>
<circle class="st5" cx="22.5" cy="22.5" r="20"/>
</svg>
