<?xml version="1.0" encoding="utf-8"?>
<!-- Generator: Adobe Illustrator 21.0.0, SVG Export Plug-In . SVG Version: 6.00 Build 0)  -->
<svg version="1.1" id="Layer_1" xmlns="http://www.w3.org/2000/svg" xmlns:xlink="http://www.w3.org/1999/xlink" x="0px" y="0px"
	 viewBox="0 0 45 45" style="enable-background:new 0 0 45 45;" xml:space="preserve">
<style type="text/css">
	.st0{fill:#00ADB2;}
	.st1{fill:#40BDFF;}
	.st2{fill:#FF6643;}
	.st3{fill:#FFDD00;}
	.st4{fill:#FF5F78;}
	.st5{fill:none;stroke:#000000;stroke-miterlimit:10;}
	.st6{display:none;}
	.st7{fill:#D10000;}
	.st8{display:none;fill:#FFFFFF;}
	.st9{fill:#FFFFFF;}
	.st10{fill:#33A0CE;}
	.st11{fill:#FFE33E;}
	.st12{fill:#1B227D;}
	.st13{fill:#0D95D1;}
	.st14{fill:#0F66CE;}
	.st15{fill:none;}
	.st16{stroke:#000000;stroke-width:0.3;stroke-miterlimit:10;}
	.st17{fill:#21A7AD;}
	.st18{fill:#FFFFFF;stroke:#FFFFFF;stroke-width:0.3;stroke-miterlimit:10;}
	.st19{fill:#0084B0;}
	.st20{fill:#FFFFFF;stroke:#000000;stroke-miterlimit:10;}
	.st21{stroke:#000000;stroke-width:0.2;stroke-miterlimit:10;}
	.st22{fill:none;stroke:#160039;stroke-miterlimit:10;}
	.st23{fill:#FC8700;}
	.st24{fill:#2295FC;}
</style>
<circle class="st5" cx="22.5" cy="22.5" r="20"/>
<g>
	<rect x="6.4" y="6.4" class="st6" width="32.2" height="32.2"/>
	<path d="M27.3,37c1.1,0,1.9-0.9,1.9-1.9V22.5h-1v-4.3c0-0.6-0.4-1.2-1-1.4v-0.1v0v0v0v0v0v0v0V8c0-0.4-0.2-0.7-0.5-0.9
		c-0.3-0.2-0.7-0.2-1,0.1L22,9.9c-0.3,0.2-0.4,0.5-0.4,0.8v6.1v0v0v0v0v0v0v0v0.1c-0.6,0.2-1,0.7-1,1.4v4.3h-1v1v1.1
		c-0.3-0.1-0.6-0.1-1-0.1c-2.7,0-4.8,2.6-4.8,5.8V37v1h1h7.7h1v-1H27.3L27.3,37z M22.5,36v1h-7.7v-6.8c0-2.7,1.7-4.8,3.9-4.8
		s3.9,2.2,3.9,4.8V36L22.5,36z M23.5,30.2c0-2.4-1.2-4.4-2.9-5.3v-1.4h7.7V35c0,0.5-0.4,1-1,1h-3.9V30.2L23.5,30.2z M26.4,24.9
		c0-0.3,0.2-0.5,0.5-0.5s0.5,0.2,0.5,0.5v5.8c0,0.3-0.2,0.5-0.5,0.5c-0.3,0-0.5-0.2-0.5-0.5V24.9L26.4,24.9z M26.4,16.7h-3.9v-6.1
		L26.4,8V16.7L26.4,16.7z M27.3,22.5h-5.8v-4.3c0-0.3,0.2-0.5,0.5-0.5h0.5h0.1h0.8h3h0.5c0.3,0,0.5,0.2,0.5,0.5V22.5z"/>
</g>
</svg>
