<?xml version="1.0" encoding="utf-8"?>
<!-- Generator: Adobe Illustrator 21.0.0, SVG Export Plug-In . SVG Version: 6.00 Build 0)  -->
<svg version="1.1" id="Layer_1" xmlns="http://www.w3.org/2000/svg" xmlns:xlink="http://www.w3.org/1999/xlink" x="0px" y="0px"
	 viewBox="0 0 45 45" style="enable-background:new 0 0 45 45;" xml:space="preserve">
<style type="text/css">
	.st0{fill:#00ADB2;}
	.st1{fill:#40BDFF;}
	.st2{fill:#FF6643;}
	.st3{fill:#FFDD00;}
	.st4{fill:#FF5F78;}
	.st5{fill:none;stroke:#000000;stroke-miterlimit:10;}
	.st6{display:none;}
	.st7{fill:#D10000;}
	.st8{display:none;fill:#FFFFFF;}
	.st9{fill:#FFFFFF;}
	.st10{fill:#33A0CE;}
	.st11{fill:#FFE33E;}
	.st12{fill:#1B227D;}
	.st13{fill:#0D95D1;}
	.st14{fill:#0F66CE;}
	.st15{fill:none;}
	.st16{stroke:#000000;stroke-width:0.3;stroke-miterlimit:10;}
	.st17{fill:#21A7AD;}
	.st18{fill:#FFFFFF;stroke:#FFFFFF;stroke-width:0.3;stroke-miterlimit:10;}
	.st19{fill:#0084B0;}
	.st20{fill:#FFFFFF;stroke:#000000;stroke-miterlimit:10;}
	.st21{stroke:#000000;stroke-width:0.2;stroke-miterlimit:10;}
	.st22{fill:none;stroke:#160039;stroke-miterlimit:10;}
	.st23{fill:#FC8700;}
	.st24{fill:#2295FC;}
</style>
<circle class="st5" cx="22.5" cy="22.5" r="20"/>
<g>
	<rect x="13.9" y="20.3" width="1.4" height="0.7"/>
	<rect x="21.7" y="20.3" width="1.4" height="0.7"/>
	<path d="M32.2,19.1h-1.5c-0.6-0.5-3.5-2.7-5.4-3.7c-0.3-0.2-0.7-0.3-1.1-0.4l0,0c-0.2,0-0.4,0-0.5,0c0,0-9.8,0-9.8,0
		c-0.3,0-0.8,0.1-1.3,0.4h0v0c-1.9,0.8-5,2.7-6.2,3.5C6.2,19,6.1,19,6,19.1l0,0c0,0,0,0,0,0c0,0,0,0.1-0.1,0.1c0,0,0,0,0,0.1
		c0,0,0,0,0,0.1c0,0,0,0.1-0.1,0.1c0,0,0,0,0,0c0,0,0,0.1-0.1,0.1c0,0,0,0,0,0c0,0,0,0.1,0,0.2c0,0,0,0,0,0l0,0
		c0,0.2-0.1,0.5-0.1,0.8v3.1c0,2.6,1.5,3,2.1,3.1l0.8,0C8.8,28.6,10.3,30,12,30s3.3-1.4,3.4-3.1l13.9,0c0.2,1.7,1.7,3.1,3.4,3.1
		c1.8,0,3.3-1.4,3.4-3.1h0.1c1.7,0,3-0.9,3-2.1v-2.3C39.4,19.9,35.5,19.3,32.2,19.1z M24.1,15.8L24.1,15.8c0.3,0.1,0.6,0.2,0.9,0.3
		c1.4,0.7,3.3,2.1,4.5,3h0l0,0c0,0,0,0,0,0h0H21v-3.4l2.6,0C23.8,15.8,23.9,15.8,24.1,15.8z M20.3,15.8v3.4h-7v-3.2
		c0.2-0.1,0.4-0.1,0.5-0.1L20.3,15.8z M12.5,16.2v2.9H7.6H7.3C9,18.1,11.1,16.8,12.5,16.2z M6.4,21.1h0.9v1.7H6.4V21.1z M6.4,23.8
		v-0.3H8v-3.2H6.4v-0.4h1.3l0,0h12.7v6.2h-4.8C15.3,24.4,13.8,23,12,23s-3.3,1.4-3.4,3.1H7.8C6.9,26,6.4,25.2,6.4,23.8z M12,29.2
		c-1.5,0-2.7-1.2-2.7-2.7c0-1.5,1.2-2.7,2.7-2.7s2.7,1.2,2.7,2.7C14.8,28,13.5,29.2,12,29.2z M32.8,29.2c-1.5,0-2.7-1.2-2.7-2.7
		c0-1.5,1.2-2.7,2.7-2.7c1.5,0,2.7,1.2,2.7,2.7C35.6,28,34.3,29.2,32.8,29.2z M38.6,24.8c0,0.7-1,1.3-2.3,1.3h-0.1
		c-0.2-1.7-1.7-3.1-3.4-3.1c-1.8,0-3.3,1.4-3.4,3.1H21v-6.2h11.2c1.9,0.1,6.4,0.5,6.4,2.6V24.8z"/>
</g>
</svg>
