<?xml version="1.0" encoding="utf-8"?>
<!-- Generator: Adobe Illustrator 21.0.0, SVG Export Plug-In . SVG Version: 6.00 Build 0)  -->
<svg version="1.1" id="Layer_1" xmlns="http://www.w3.org/2000/svg" xmlns:xlink="http://www.w3.org/1999/xlink" x="0px" y="0px"
	 viewBox="0 0 45 45" style="enable-background:new 0 0 45 45;" xml:space="preserve">
<style type="text/css">
	.st0{fill:#00ADB2;}
	.st1{fill:#40BDFF;}
	.st2{fill:#FF6643;}
	.st3{fill:#FFDD00;}
	.st4{fill:#FF5F78;}
	.st5{fill:none;stroke:#000000;stroke-miterlimit:10;}
	.st6{display:none;}
	.st7{fill:#D10000;}
	.st8{display:none;fill:#FFFFFF;}
	.st9{fill:#FFFFFF;}
	.st10{fill:#33A0CE;}
	.st11{fill:#FFE33E;}
	.st12{fill:#1B227D;}
	.st13{fill:#0D95D1;}
	.st14{fill:#0F66CE;}
	.st15{fill:none;}
	.st16{stroke:#000000;stroke-width:0.3;stroke-miterlimit:10;}
	.st17{fill:#21A7AD;}
	.st18{fill:#FFFFFF;stroke:#FFFFFF;stroke-width:0.3;stroke-miterlimit:10;}
	.st19{fill:#0084B0;}
	.st20{fill:#FFFFFF;stroke:#000000;stroke-miterlimit:10;}
	.st21{stroke:#000000;stroke-width:0.2;stroke-miterlimit:10;}
	.st22{fill:none;stroke:#160039;stroke-miterlimit:10;}
	.st23{fill:#FC8700;}
	.st24{fill:#2295FC;}
</style>
<circle class="st5" cx="22.5" cy="22.5" r="20"/>
<g>
	<g>
		<path d="M33.6,26.3c-1.4-1.4-3.6-1.9-5.5-1.1l-3.8-3.8l6.2-6.2h1.4c0.1,0,0.3-0.1,0.3-0.2l1.9-2.5c0.1-0.2,0.1-0.4,0-0.6l-0.5-0.5
			L33.1,11c-0.1-0.1-0.4-0.2-0.6,0L30,12.9c-0.1,0.1-0.2,0.2-0.2,0.3v1.4l-6.2,6.2L19.8,17c0.8-1.9,0.3-4.1-1.1-5.5
			c-1.4-1.4-3.6-1.9-5.4-1.2c-0.1,0.1-0.2,0.2-0.3,0.3s0,0.3,0.1,0.4l1.9,1.9c0.3,0.3,0.4,0.7,0.4,1.1c0,0.4-0.1,0.8-0.4,1.1
			s-0.7,0.4-1.1,0.4c-0.4,0-0.8-0.1-1.1-0.4L11,13.2c-0.1-0.1-0.3-0.1-0.4-0.1s-0.3,0.1-0.3,0.3c-0.7,1.9-0.3,4,1.2,5.4
			c1.4,1.4,3.6,1.9,5.5,1.1l1.7,1.7l-0.2,0.2c-0.1,0.1-0.1,0.2-0.1,0.3v0.5c0,0.4-0.3,0.7-0.7,0.7h-0.4c-0.1,0-0.2,0.1-0.3,0.1
			l-5.5,5.5c-0.3,0.3-0.5,0.9-0.5,1.4l0,1.6c0,1.2,1,2.2,2.2,2.2l1.6,0h0c0.5,0,1-0.2,1.3-0.5l5.5-5.5c0.1-0.1,0.1-0.2,0.1-0.3v-0.4
			c0-0.4,0.3-0.7,0.7-0.7H23c0.1,0,0.2-0.1,0.3-0.1l0.2-0.2l1.7,1.7c-0.8,1.9-0.3,4.1,1.1,5.5c1.4,1.4,3.6,1.9,5.4,1.2
			c0.1-0.1,0.2-0.2,0.3-0.3c0-0.1,0-0.3-0.1-0.4L30,32.1c-0.3-0.3-0.4-0.7-0.4-1.1c0-0.4,0.1-0.8,0.4-1.1c0.3-0.3,0.7-0.4,1.1-0.4
			c0.4,0,0.8,0.1,1.1,0.4l1.9,1.9c0.1,0.1,0.3,0.1,0.4,0.1s0.3-0.1,0.3-0.3c0.2-0.6,0.3-1.2,0.3-1.8C35.1,28.6,34.5,27.3,33.6,26.3z
			 M30.7,13.4l2.1-1.5l0.2,0.2l0.2,0.2l-1.5,2.1h-0.9L30.7,13.4z M17.4,19c-0.1-0.1-0.3-0.2-0.5-0.1c-1.6,0.8-3.6,0.4-4.9-0.8
			c-1-1-1.4-2.5-1.2-3.8l1.4,1.4c0.9,0.9,2.4,0.9,3.4,0s0.9-2.4,0-3.4l-1.4-1.4c1.4-0.3,2.8,0.1,3.8,1.2c1.3,1.3,1.6,3.2,0.8,4.9
			c-0.1,0.2-0.1,0.4,0.1,0.5l4,4l-0.9,0.9l-1.8-1.8c-0.1-0.1-0.2-0.1-0.3-0.1s-0.2,0.1-0.3,0.1l-0.4,0.4L17.4,19z M22.9,25.7
			L22.9,25.7l-0.3,0c-0.9,0-1.6,0.7-1.6,1.6v0.3l-5.4,5.4c-0.2,0.2-0.5,0.3-0.8,0.3l-1.6,0c-0.8,0-1.4-0.6-1.4-1.4l0-1.6
			c0-0.3,0.1-0.5,0.3-0.8l5.4-5.4h0.3c0.9,0,1.6-0.7,1.6-1.6v-0.3l0,0l0.6-0.6l3.5,3.5L22.9,25.7z M34.1,30.7l-1.4-1.4
			c-0.9-0.9-2.4-0.9-3.4,0s-0.9,2.4,0,3.4l1.4,1.4c-1.4,0.3-2.8-0.1-3.8-1.2c-1.3-1.3-1.6-3.2-0.8-4.9c0.1-0.2,0.1-0.4-0.1-0.5
			l-1.9-1.9l0.3-0.3c0.1-0.1,0.1-0.2,0.1-0.3c0-0.1-0.1-0.2-0.1-0.3l-1.8-1.8l0.9-0.9l4,4c0.1,0.1,0.3,0.2,0.5,0.1
			c1.6-0.8,3.6-0.4,4.9,0.8C34,27.9,34.4,29.4,34.1,30.7z"/>
		<path d="M18.5,25.2c-0.2-0.2-0.4-0.2-0.6,0L13,30.1c-0.2,0.2-0.2,0.4,0,0.6c0.1,0.1,0.2,0.1,0.3,0.1s0.2,0,0.3-0.1l4.8-4.8
			C18.6,25.7,18.6,25.4,18.5,25.2z"/>
		<path d="M19.2,26.5l-4.8,4.9c-0.2,0.2-0.2,0.4,0,0.6c0.1,0.1,0.2,0.1,0.3,0.1s0.2,0,0.3-0.1l4.9-4.9c0.2-0.2,0.2-0.4,0-0.6
			C19.7,26.4,19.3,26.4,19.2,26.5z"/>
	</g>
</g>
</svg>
