<?xml version="1.0" encoding="utf-8"?>
<!-- Generator: Adobe Illustrator 21.0.0, SVG Export Plug-In . SVG Version: 6.00 Build 0)  -->
<svg version="1.1" id="Layer_1" xmlns="http://www.w3.org/2000/svg" xmlns:xlink="http://www.w3.org/1999/xlink" x="0px" y="0px"
	 viewBox="0 0 45 45" style="enable-background:new 0 0 45 45;" xml:space="preserve">
<style type="text/css">
	.st0{fill:#00ADB2;}
	.st1{fill:#40BDFF;}
	.st2{fill:#FF6643;}
	.st3{fill:#FFDD00;}
	.st4{fill:#FF5F78;}
	.st5{fill:none;stroke:#000000;stroke-miterlimit:10;}
	.st6{display:none;}
	.st7{fill:#D10000;}
	.st8{display:none;fill:#FFFFFF;}
	.st9{fill:#FFFFFF;}
	.st10{fill:#33A0CE;}
	.st11{fill:#FFE33E;}
	.st12{fill:#1B227D;}
	.st13{fill:#0D95D1;}
	.st14{fill:#0F66CE;}
	.st15{fill:none;}
	.st16{stroke:#000000;stroke-width:0.3;stroke-miterlimit:10;}
	.st17{fill:#21A7AD;}
	.st18{fill:#FFFFFF;stroke:#FFFFFF;stroke-width:0.3;stroke-miterlimit:10;}
	.st19{fill:#0084B0;}
	.st20{fill:#FFFFFF;stroke:#000000;stroke-miterlimit:10;}
	.st21{stroke:#000000;stroke-width:0.2;stroke-miterlimit:10;}
	.st22{fill:none;stroke:#160039;stroke-miterlimit:10;}
	.st23{fill:#FC8700;}
	.st24{fill:#2295FC;}
</style>
<circle class="st5" cx="22.5" cy="22.5" r="20"/>
<g transform="matrix( 1, 0, 0, 1, 0,0) ">
	<g>
		<g id="a">
			<path d="M21.3,9L21.3,9c-0.4-0.4-0.9-0.6-1.4-0.6c-0.5,0-1,0.2-1.4,0.6l0,0c-0.4,0.4-0.6,0.9-0.6,1.4c0,0.5,0.2,1,0.6,1.4v0
				c0.4,0.4,0.9,0.6,1.4,0.6c0.6,0,1-0.2,1.4-0.6l0,0c0.1-0.1,0.2-0.3,0.3-0.4c0.9,0.2,1.5,1,1.7,2.3L22,24.5
				c-0.2,1.9-1.4,3-3.4,3.3l-2.7,0c-2.4-0.1-3.7-1.4-4-3.9v0l-1.4-10.2c0.2-1.3,0.8-2,1.7-2.3c0.1,0.2,0.2,0.3,0.3,0.4v0
				c0.4,0.4,0.9,0.6,1.4,0.6c0.5,0,1-0.2,1.4-0.6v0c0.4-0.4,0.6-0.8,0.6-1.4c0-0.6-0.2-1-0.6-1.4l0,0c-0.4-0.4-0.9-0.6-1.4-0.6
				c-0.5,0-1,0.2-1.4,0.6l0,0c-0.4,0.4-0.6,0.9-0.6,1.4c0,0,0,0,0,0c-1.3,0.3-2.1,1.3-2.4,3.2c0,0,0,0.1,0,0.1L10.9,24
				c0.4,3.1,2.1,4.7,5,4.7l0.9,0c-0.4,4.6,1.8,7.2,6.3,7.8c0,0,0,0,0,0c4.2,0.3,7.2-0.6,8.9-2.9c1.7-2.1,2.1-5.4,1.4-9.8
				c0.4-0.2,0.8-0.4,1.1-0.8c0.7-0.7,1.1-1.5,1.1-2.5c0-1-0.3-1.8-1-2.6h0c-0.7-0.7-1.5-1-2.5-1c-1,0-1.8,0.3-2.6,1l0,0
				c-0.7,0.7-1.1,1.6-1.1,2.6c0,1,0.4,1.9,1.1,2.6v0c0.7,0.7,1.6,1.1,2.6,1.1c0.2,0,0.3,0,0.5,0c0.7,4,0.3,7-1.2,9
				c-1.5,1.9-4.2,2.8-8.1,2.5h0c-4-0.6-5.8-2.9-5.5-6.9h0.9c0,0,0,0,0.1,0c2.6-0.3,4-1.7,4.3-4.1l1.3-10.9c0,0,0-0.1,0-0.1
				c-0.3-1.8-1.1-2.9-2.4-3.2c0,0,0,0,0,0C21.9,9.8,21.7,9.4,21.3,9 M19.2,9.7L19.2,9.7c0.2-0.2,0.4-0.3,0.7-0.3
				c0.3,0,0.5,0.1,0.7,0.3v0c0.2,0.2,0.3,0.4,0.3,0.7c0,0.3-0.1,0.5-0.3,0.7l0,0c-0.2,0.2-0.4,0.3-0.7,0.3c-0.3,0-0.5-0.1-0.7-0.3h0
				c-0.2-0.2-0.3-0.4-0.3-0.7C18.9,10.1,19,9.9,19.2,9.7 M30,18.7L30,18.7c0.5-0.5,1.1-0.7,1.9-0.7c0.7,0,1.3,0.2,1.9,0.7v0
				c0.5,0.5,0.8,1.1,0.8,1.9c0,0.7-0.3,1.4-0.8,1.9c-0.3,0.3-0.7,0.6-1.1,0.7c0,0,0,0,0,0c-0.2,0.1-0.5,0.1-0.7,0.1
				c-0.7,0-1.3-0.3-1.9-0.8l0,0c-0.5-0.5-0.8-1.1-0.8-1.9C29.3,19.8,29.5,19.2,30,18.7 M14.6,9.7L14.6,9.7c0.2,0.2,0.3,0.5,0.3,0.7
				c0,0.3-0.1,0.5-0.3,0.7l0,0c-0.2,0.2-0.4,0.3-0.7,0.3c-0.3,0-0.5-0.1-0.7-0.3l0,0c-0.2-0.2-0.3-0.4-0.3-0.7
				c0-0.3,0.1-0.5,0.3-0.7v0c0.2-0.2,0.5-0.3,0.7-0.3C14.2,9.4,14.4,9.5,14.6,9.7 M30,20.6c0,0.5,0.2,1,0.6,1.4v0
				c0.4,0.4,0.9,0.6,1.4,0.6c0.5,0,1-0.2,1.4-0.6v0c0.4-0.4,0.6-0.9,0.6-1.4c0-0.6-0.2-1-0.6-1.4l0,0c-0.4-0.4-0.9-0.6-1.4-0.6
				c-0.5,0-1,0.2-1.4,0.6l0,0C30.2,19.6,30,20,30,20.6 M32.7,19.9L32.7,19.9c0.2,0.2,0.3,0.5,0.3,0.7c0,0.3-0.1,0.5-0.3,0.7l0,0
				c-0.2,0.2-0.4,0.3-0.7,0.3c-0.3,0-0.5-0.1-0.7-0.3l0,0c-0.2-0.2-0.3-0.4-0.3-0.7c0-0.3,0.1-0.5,0.3-0.7v0
				c0.2-0.2,0.5-0.3,0.7-0.3C32.3,19.6,32.5,19.7,32.7,19.9z"/>
		</g>
	</g>
</g>
</svg>
