<?xml version="1.0" encoding="utf-8"?>
<!-- Generator: Adobe Illustrator 21.0.0, SVG Export Plug-In . SVG Version: 6.00 Build 0)  -->
<svg version="1.1" id="Layer_1" xmlns="http://www.w3.org/2000/svg" xmlns:xlink="http://www.w3.org/1999/xlink" x="0px" y="0px"
	 viewBox="0 0 45 45" style="enable-background:new 0 0 45 45;" xml:space="preserve">
<style type="text/css">
	.st0{fill:#00ADB2;}
	.st1{fill:#40BDFF;}
	.st2{fill:#FF6643;}
	.st3{fill:#FFDD00;}
	.st4{fill:#FF5F78;}
	.st5{fill:none;stroke:#000000;stroke-miterlimit:10;}
	.st6{display:none;}
	.st7{fill:#D10000;}
	.st8{display:none;fill:#FFFFFF;}
	.st9{fill:#FFFFFF;}
	.st10{fill:#33A0CE;}
	.st11{fill:#FFE33E;}
	.st12{fill:#1B227D;}
	.st13{fill:#0D95D1;}
	.st14{fill:#0F66CE;}
	.st15{fill:none;}
	.st16{stroke:#000000;stroke-width:0.3;stroke-miterlimit:10;}
	.st17{fill:#21A7AD;}
	.st18{fill:#FFFFFF;stroke:#FFFFFF;stroke-width:0.3;stroke-miterlimit:10;}
	.st19{fill:#0084B0;}
	.st20{fill:#FFFFFF;stroke:#000000;stroke-miterlimit:10;}
	.st21{stroke:#000000;stroke-width:0.2;stroke-miterlimit:10;}
	.st22{fill:none;stroke:#160039;stroke-miterlimit:10;}
	.st23{fill:#FC8700;}
	.st24{fill:#2295FC;}
</style>
<circle class="st5" cx="22.5" cy="22.5" r="20"/>
<g>
	<path class="st5" d="M14.9,23v2c0,1.3,0,1.3,1.5,1.3h12.6c1,0,1,0,1-1.3v-2c2.8-0.3,5-2.4,5-5c0-2.8-2.6-5.1-5.7-5.1
		c-0.4,0-0.8,0-1.2,0.1c0,0,0-0.1,0-0.1c0-2.8-2.6-5.1-5.7-5.1s-5.7,2.3-5.7,5.1c0,0,0,0.1,0,0.1c-0.4-0.1-0.8-0.1-1.2-0.1
		c-3.2,0-5.7,2.3-5.7,5.1C9.9,20.5,12.1,22.7,14.9,23z"/>
	<path class="st5" d="M34.1,31c-0.5,1.3-1.1,1.8-1.8,1.8c-3.5,0-2.4-4.2-6.6-4.2c-1.5,0-2.5,0.7-3.1,1.7c-0.6-0.9-1.6-1.7-3.1-1.7
		c-4.2,0-3.1,4.2-6.6,4.2c-0.7,0-1.3-0.5-1.8-1.8c-0.3-0.3-1.1-0.1-1.1,0.3c0,1.9,1.5,6,6.2,6c3.2,0,5.4-1.6,6.4-3.3
		c1,1.7,3.2,3.3,6.4,3.3c4.7,0,6.2-4.1,6.2-6C35.1,30.9,34.3,30.7,34.1,31z"/>
</g>
</svg>
