<?xml version="1.0" encoding="UTF-8"?>
<svg width="45px" height="45px" viewBox="0 0 45 45" version="1.1" xmlns="http://www.w3.org/2000/svg" xmlns:xlink="http://www.w3.org/1999/xlink">
    <!-- Generator: Sketch 43.1 (39012) - http://www.bohemiancoding.com/sketch -->
    <title>facebookicon</title>
    <desc>Created with Sketch.</desc>
    <defs></defs>
    <g id="Page-1" stroke="none" stroke-width="1" fill="none" fill-rule="evenodd">
        <g id="Desktop-HD-Copy-8" transform="translate(-222.000000, -1964.000000)" fill-rule="nonzero" fill="#000000">
            <g id="Social-Media-Icons" transform="translate(222.000000, 1964.000000)">
                <path d="M22.6006389,0.378383333 C13.612586,0.378369851 5.50954713,5.79263193 2.06995884,14.0965062 C-1.36962944,22.4003804 0.531601343,31.9585599 6.88710974,38.3140778 C13.2426181,44.6695957 22.8007947,46.5708408 31.1046741,43.131265 C39.4085535,39.6916892 44.8228278,31.5886585 44.8228278,22.6006056 C44.8228278,10.3276241 34.8736203,0.378401743 22.6006389,0.378383333 L22.6006389,0.378383333 Z M29.61585,13.7106056 L26.4764722,13.7106056 C25.3673944,13.7106056 25.1370278,14.1638611 25.1370278,15.3107111 L25.1370278,18.0808611 L29.6158556,18.0808611 L29.1844056,22.94475 L25.1370222,22.94475 L25.1370222,37.4718889 L19.3359722,37.4718889 L19.3359722,23.0057778 L16.3183333,23.0057778 L16.3183333,18.0808833 L19.3359778,18.0808833 L19.3359778,14.2028833 C19.3359778,10.5638333 21.2822556,8.66262222 25.599,8.66262222 L29.6158611,8.66262222 L29.61585,13.7106056 Z" id="facebookicon"></path>
            </g>
        </g>
    </g>
</svg>