<?xml version="1.0" encoding="UTF-8"?>
<svg width="139px" height="139px" viewBox="0 0 139 139" version="1.1" xmlns="http://www.w3.org/2000/svg" xmlns:xlink="http://www.w3.org/1999/xlink">
    <!-- Generator: Sketch 43.2 (39069) - http://www.bohemiancoding.com/sketch -->
    <title>Group 2</title>
    <desc>Created with Sketch.</desc>
    <defs></defs>
    <g id="Page-1" stroke="none" stroke-width="1" fill="none" fill-rule="evenodd">
        <g id="Desktop-HD-Copy-11" transform="translate(-224.000000, -1385.000000)">
            <g id="Results-Copy-2" transform="translate(224.000000, 472.000000)">
                <g id="Group-2" transform="translate(2.000000, 915.000000)">
                    <polygon id="Stroke-2" stroke="#37BBA3" stroke-width="3" points="0 135 135 135 135 0 0 0"></polygon>
                    <path d="M93.4019187,43.6603946 C96.3375511,42.3819636 99.2944101,41.1353232 102.198203,39.795582 C103.39538,39.2347074 103.677694,38.1538315 103.093963,37.1569733 C102.552686,36.232779 101.440415,35.9126035 100.28569,36.3690238 C99.578846,36.6505965 98.8974736,36.9707719 98.1991199,37.2727814 C96.0807098,38.1947049 93.9580544,39.0984625 91.8545029,40.0453643 C90.8037885,40.5108676 90.3580308,41.4691231 90.6360987,42.3706099 C90.8886947,43.2017035 91.7228982,43.7625782 92.8139431,43.7534952 C92.9200759,43.7421415 93.1875305,43.7534952 93.4019187,43.6603946 M104.446095,56.4151842 C105.630537,56.3833937 106.606958,55.4047015 106.566628,54.3874065 C106.52842,53.3701116 105.598697,52.5072274 104.414255,52.4981445 C101.293952,52.4867907 98.1715254,52.4777077 95.051222,52.4981445 C93.7372982,52.5072274 92.8563962,53.3701116 92.8733775,54.5350051 C92.8818681,55.624964 93.775506,56.4038304 95.0830618,56.4151842 C96.6262323,56.4356209 98.1694028,56.4151842 99.7125733,56.4151842 C101.283338,56.4151842 102.868962,56.4447039 104.446095,56.4151842 M91.5509632,66.6744221 C91.3195937,67.5145987 91.7462475,68.3456924 92.7566314,68.7907589 C95.4587718,70.0078797 98.186384,71.1818562 100.911874,72.344479 C102.348911,72.9689346 103.556702,72.6374055 104.104347,71.5043024 C104.628643,70.4234265 104.108593,69.4061315 102.705517,68.7907589 C100.118,67.6508436 97.5219929,66.5290943 94.9238626,65.4164279 C94.5120675,65.2415803 94.0748005,65.1257722 93.7861193,65.0326715 C92.6207815,65.0531083 91.8184177,65.6775639 91.5509632,66.6744221 M42.9315407,65.0440253 C38.8326931,66.4042031 35.334557,68.5341644 33.7531787,72.4920776 C32.0062333,76.8837036 32.7703892,81.1844997 34.9546016,85.3081774 C35.5213506,86.3776996 36.4149886,87.1997102 37.6524967,87.6674842 C40.3482691,88.6552595 42.4348393,87.597091 44.2900402,85.932633 C45.9690606,84.4362103 46.9688313,82.5378653 47.7457232,80.5327951 C49.2230914,76.7406465 51.9337224,74.072518 55.9306825,72.4920776 C57.5757405,71.8381023 59.2590062,71.3181011 60.9698665,70.8298903 C67.348446,69.0314582 69.9486989,63.5067291 66.8814618,58.0251443 C64.6059752,53.9741304 60.6790627,52.2892357 55.9158239,52.0939514 C52.8698134,51.9690602 50.7535259,50.6384021 49.7728591,48.0406668 C49.5223858,47.3776085 49.1254492,46.9211882 48.3400667,47.075599 C47.4782686,47.2436344 47.3169468,47.886256 47.4358155,48.5924585 C47.4740233,48.8535945 47.5546842,49.1124597 47.6693076,49.3418052 C49.1254492,52.4459173 51.7214568,54.0763141 55.3236031,54.2852229 C58.7644275,54.4941316 61.8528911,55.3343083 64.0519622,58.0342273 C67.3654273,62.1079486 65.5760288,67.2375675 60.313966,68.6590556 C59.5752819,68.8679643 58.8323525,69.0564364 58.108527,69.2835112 C54.0712364,70.5505884 50.3226269,72.2422954 47.7945443,75.6188971 C46.724726,77.0517389 45.9690606,78.6003888 45.264339,80.2103489 C44.3749464,82.2358558 43.3603171,84.2182185 41.1421422,85.3308849 C39.4673671,86.1619785 38.1173582,85.7963882 37.1282008,84.2908825 C36.8904634,83.9389166 36.6973017,83.5551602 36.5211213,83.1600501 C35.8291357,81.5909635 35.5510678,79.9310469 35.3515382,78.2347984 C34.8484689,73.9271901 36.9583884,70.2599327 41.0954438,68.2548625 C44.45773,66.6358194 48.0747348,66.0113638 51.8084857,65.793372 C52.5365565,65.7524986 53.2794859,65.8660359 53.9990661,65.6593979 C54.5806737,65.4913626 54.8672322,65.11896 54.8290244,64.5671683 C54.7908166,64.0062936 54.4936448,63.6747644 53.88232,63.5612271 C53.1393906,63.4363359 52.4113198,63.5385196 51.880656,63.5612271 C48.6775689,63.6225372 45.7504271,64.110748 42.9315407,65.0440253 M73.3449476,41.8301719 C69.3586007,35.7672757 61.9102028,32.7449106 54.8077978,34.1981891 C47.0473696,35.7763587 41.0275188,42.5477282 40.7409603,48.7900135 C40.4650151,54.6894159 44.1541902,59.5192962 50.420269,60.7046265 C51.0315938,60.8204346 51.6323053,61.0157189 52.2839605,60.9317013 C52.9250024,60.8386006 53.2985898,60.5048007 53.3431656,59.9030526 C53.3813734,59.3013044 53.0417485,58.9175481 52.4283011,58.7722202 C51.9931567,58.6564121 51.5261725,58.6359754 51.0846602,58.5337917 C47.3190695,57.6913444 44.4916925,55.8747462 43.5428655,52.1666153 C43.071636,50.3386634 43.0907399,48.4789211 43.5471108,46.662323 C45.2600937,39.7751453 53.9587356,34.7795005 61.4389733,36.421251 C67.976752,37.8540928 71.7126256,42.0163733 73.4829202,47.7500111 C75.0664212,52.8387566 74.9305712,58.0433102 73.4977788,63.1638462 C71.7423428,69.4152145 68.3736886,74.7968865 62.9651626,78.9909574 C59.7557076,81.4751554 56.7457822,84.1432839 54.1497746,87.1974395 C53.6530733,87.7878339 53.5087327,88.3941235 54.1603879,88.9232077 C54.8353923,89.4818116 55.5188874,89.2320294 55.9901169,88.6620717 C58.7623049,85.3081774 62.2816675,82.6695686 65.6099912,79.8334048 C73.2536734,73.3231713 76.8430837,65.1144185 76.9810563,55.561383 C77.0128962,49.9639901 75.8857661,45.7154212 73.3449476,41.8301719 M58.4736237,24.3 C69.9805388,24.7155468 78.0360161,29.9496202 82.9860485,39.4708651 C85.0853547,43.512796 85.860124,47.8658192 86.1827676,52.2983187 C86.666733,59.008378 85.7539912,65.5208823 83.2004367,71.8131241 C80.0122083,79.6676402 74.962411,86.2914111 67.8557607,91.5799824 C62.4281308,95.5969351 57.4016827,99.9817488 53.2922218,105.279403 C49.7834724,109.798191 44.6912221,111.480815 38.8326931,110.368149 C32.7555306,109.205526 28.9347509,105.599579 27.4191749,100.011269 C26.6380377,97.127419 26.9521907,94.2799014 28.3319167,91.557275 C29.0599875,90.1244332 30.3526847,89.604432 31.6368912,90.1562237 C32.9402016,90.7057446 33.3371382,91.9115116 32.7003416,93.3761438 C30.4142417,98.6510907 33.2543546,104.239401 39.0279774,105.826653 C43.0270602,106.93932 47.2829843,105.506478 49.6667264,102.338785 C53.5554311,97.1637509 58.3759816,92.8016447 63.7165826,88.9708934 C71.12465,83.6437194 76.3676089,76.9450138 79.2374391,68.7158242 C82.1242504,60.4412198 82.4978378,52.0280997 79.5813092,43.7171632 C77.2060578,36.9685012 72.4576776,32.0046468 64.9986665,29.7929386 C57.4823436,27.5789596 50.5518737,28.9709279 44.3431066,33.4465716 C41.1081797,35.7740879 38.8220798,38.7533089 37.3574476,42.2956752 C36.7397548,43.7807442 35.5022467,44.4142828 34.1904457,43.9578625 C32.7555306,43.4605688 32.2142535,42.2025746 32.8850126,40.6448417 C36.1178168,33.1786234 41.876581,28.160271 50.0806442,25.5534527 C52.7891525,24.6928393 55.5846897,24.3 58.4736237,24.3" id="Fill-20" fill="#37BBA3"></path>
                </g>
            </g>
        </g>
    </g>
</svg>