<?xml version="1.0" encoding="UTF-8"?>
<svg width="45px" height="45px" viewBox="0 0 45 45" version="1.1" xmlns="http://www.w3.org/2000/svg" xmlns:xlink="http://www.w3.org/1999/xlink">
    <!-- Generator: Sketch 43.1 (39012) - http://www.bohemiancoding.com/sketch -->
    <title>linkedinicon</title>
    <desc>Created with Sketch.</desc>
    <defs></defs>
    <g id="Page-1" stroke="none" stroke-width="1" fill="none" fill-rule="evenodd">
        <g id="Desktop-HD-Copy-8" transform="translate(-422.000000, -1964.000000)" fill-rule="nonzero" fill="#000000">
            <g id="Social-Media-Icons" transform="translate(222.000000, 1964.000000)">
                <path d="M222.598214,0 C213.677395,-1.3317659e-05 205.634969,5.43928125 202.221109,13.7815484 C198.807248,22.1238156 200.694255,31.7261882 207.002219,38.1110935 C213.310184,44.4959989 222.796861,46.4060388 231.038627,42.9505645 C239.280392,39.4950901 244.654171,31.3545982 244.654178,22.3249884 C244.654191,16.4040379 242.33045,10.7255896 238.194153,6.53884071 C234.057856,2.35209182 228.447828,-1.44891128e-11 222.598214,0 Z M216.965802,33.5000963 L212.152597,33.5000963 L212.152597,17.7608415 L216.965802,17.7608415 L216.965802,33.5000963 Z M214.536036,15.6998963 C213.373415,15.7094889 212.319985,15.0080115 211.868443,13.9235513 C211.416902,12.8390911 211.656506,11.5860158 212.475191,10.7503994 C213.293876,9.91478303 214.529811,9.6618038 215.604937,10.1097823 C216.680064,10.5577608 217.381861,11.618144 217.38209,12.7949817 C217.388452,14.3925581 216.114362,15.6929974 214.536036,15.6998963 L214.536036,15.6998963 Z M235.003494,33.5000963 L230.212799,33.5000963 L230.212799,25.2380415 C230.212799,22.9723463 229.362354,21.7071439 227.592693,21.7071439 C225.665918,21.7071439 224.659805,23.0253146 224.659805,25.2380415 L224.659805,33.5000963 L220.042767,33.5000963 L220.042767,17.7608415 L224.659805,17.7608415 L224.659805,19.8809012 C225.661996,18.2410107 227.440938,17.2538188 229.345807,17.2804884 C232.642631,17.2804884 235.003499,19.3186591 235.003499,23.5345555 L235.003494,33.5000963 Z" id="linkedinicon"></path>
            </g>
        </g>
    </g>
</svg>