<?xml version="1.0" encoding="UTF-8"?>
<svg width="189px" height="67px" viewBox="0 0 189 67" version="1.1" xmlns="http://www.w3.org/2000/svg" xmlns:xlink="http://www.w3.org/1999/xlink">
    <!-- Generator: Sketch 43.2 (39069) - http://www.bohemiancoding.com/sketch -->
    <title>logoFP-02</title>
    <desc>Created with Sketch.</desc>
    <defs></defs>
    <g id="Page-1" stroke="none" stroke-width="1" fill="none" fill-rule="evenodd">
        <g id="Desktop-HD-Copy-8" transform="translate(-222.000000, -30.000000)">
            <g id="logoFP-02" transform="translate(222.000000, 30.000000)">
                <g id="Group" fill-rule="nonzero">
                    <path d="M26.292887,29.1297587 C29.0108787,36.4731903 27.3849372,44.3289544 20.492887,47.3541555 C13.6008368,50.4037534 3.60251046,47.6957105 0.884518828,40.3522788 C-1.8334728,32.9844504 3.28702929,22.4450402 10.1790795,19.4198391 C17.0711297,16.3946381 23.5748954,21.7863271 26.292887,29.1297587 Z" id="Shape" fill="#DD1F26" opacity="0.75"></path>
                    <path d="M27.9430962,15.2723861 C27.9430962,15.2967828 26.851046,17.6632708 25.2251046,21.2739946 C25.0552301,21.6155496 24.9096234,21.9815013 24.739749,22.3718499 C23.7205021,24.5919571 22.5556485,27.2024129 21.2937238,29.9592493 C20.0560669,32.691689 18.7456067,35.5705094 17.4351464,38.4005362 C15.4451883,42.7431635 13.4794979,47.0126005 11.9020921,50.4037534 C10.9799163,52.3798928 10.1790795,54.038874 9.57238494,55.3075067 C8.43179916,57.6739946 6.36903766,61.2847185 4.91297071,63.919571 C3.9665272,65.6029491 4.35481172,66.1884718 4.86443515,66.6032172 C5.25271967,66.9447721 5.98075314,66.9691689 6.5874477,66.7983914 C7.29121339,66.5788204 8.01924686,66.0664879 8.33472803,65.2369973 C9.71799163,61.6262735 10.1548117,59.8697051 11.2711297,56.7957105 C12.0962343,54.5512064 12.7514644,52.5506702 13.4794979,50.3793566 C14.134728,48.4764075 14.8870293,46.4514745 15.9062762,44.0117962 C16.9012552,41.6453083 18.1631799,38.986059 18.1631799,38.986059 L18.5271967,38.2297587 L22.0702929,30.7643432 L25.4677824,23.6160858 L25.6619247,23.2013405 L25.6861925,23.2013405 C25.7589958,23.030563 25.8317992,22.8597855 25.9046025,22.689008 L26.0502092,22.3962466 L27.2150628,20.0297587 C27.2150628,20.0297587 27.8702929,18.2 29.083682,19.0782842 C29.4962343,19.3710456 30.0543933,20.4201072 30.2728033,20.9080429 C30.3456067,21.0544236 30.3941423,21.1520107 30.3941423,21.1520107 C30.9523013,22.5182306 31.534728,23.9088472 32.092887,25.275067 C32.4569038,26.177748 32.8451883,27.080429 33.209205,27.9831099 C36.1213389,35.0093834 39.009205,42.0112601 41.8970711,49.0375335 C43.6200837,53.2093834 45.3430962,57.3812332 47.0661088,61.5530831 C47.5514644,62.7241287 48.0368201,63.8951743 48.5221757,65.0662198 L40.8778243,65.0662198 C40.5380753,66.1640751 41.3146444,65.9689008 41.8485356,65.9689008 L67.0384937,65.9689008 L67.8635983,65.0662198 C67.5238494,65.0662198 64.9271967,64.9686327 63.4711297,65.0418231 C62.5974895,65.0906166 62.1606695,64.8466488 61.8209205,64.041555 C60.9958159,62.0654155 60.1707113,60.1136729 59.3456067,58.1375335 C57.2828452,53.2093834 55.1958159,48.2812332 53.1330544,43.3530831 C51.8711297,40.327882 50.5849372,37.302681 49.2987448,34.2774799 C48.3037657,31.910992 47.2845188,29.5201072 46.2895397,27.1536193 C44.6393305,23.2257373 42.9891213,19.322252 41.3389121,15.39437 C39.3004184,10.563807 37.2619247,5.75764075 35.223431,0.927077748 C35.1020921,0.658713137 34.8108787,0.439142091 34.6167364,0.195174263 C34.3740586,0.439142091 34.0585774,0.658713137 33.9372385,0.951474531 C33.2577406,2.53726542 32.6025105,4.1230563 31.9230126,5.70884718 C31.0736402,7.73378016 30.2242678,9.73431635 29.3748954,11.7592493 C28.9138075,12.9790885 28.4284519,14.1257373 27.9430962,15.2723861 Z M30.2970711,20.9324397 L28.5497908,16.6873995 L28.5497908,16.6873995 C29.1322176,18.1024129 29.7146444,19.5174263 30.2970711,20.9324397 C30.3213389,21.00563 30.3698745,21.1032172 30.3941423,21.1764075 L30.2970711,20.9324397 Z" id="Shape" fill="#000000"></path>
                </g>
                <text id="AnswerGalaxy" fill="#000000" font-family="Agenda-Medium, Agenda" font-size="18" font-weight="400">
                    <tspan x="85" y="40">AnswerGalaxy</tspan>
                </text>
            </g>
        </g>
    </g>
</svg>