<?xml version="1.0" encoding="UTF-8"?>
<svg width="139px" height="126px" viewBox="0 0 139 126" version="1.1" xmlns="http://www.w3.org/2000/svg" xmlns:xlink="http://www.w3.org/1999/xlink">
    <!-- Generator: Sketch 43.2 (39069) - http://www.bohemiancoding.com/sketch -->
    <title>Group 19</title>
    <desc>Created with Sketch.</desc>
    <defs></defs>
    <g id="Page-1" stroke="none" stroke-width="1" fill="none" fill-rule="evenodd">
        <g id="Desktop-HD-Copy-11" transform="translate(-224.000000, -613.000000)">
            <g id="Results-Copy-2" transform="translate(224.000000, 472.000000)">
                <g id="Group-19" transform="translate(2.000000, 143.000000)">
                    <polygon id="Stroke-1" stroke="#FBAE2D" stroke-width="3" points="0 121.995694 135 121.995694 135 0 0 0"></polygon>
                    <path d="M95.9502228,89.5585564 L89.684462,89.5585564 L93.6842772,86.0339425 L89.6392663,82.5000092 L93.6842772,78.9679397 L89.6721359,75.4321425 L95.9604946,75.4321425 L105.956951,80.7610008 L105.956951,84.2334258 L95.9502228,89.5585564 Z M27.6883533,89.5492369 L27.6883533,83.6649397 C47.3936576,83.6239342 82.266212,83.5810647 87.6157337,83.6444369 L90.3439076,86.0339425 L86.3687446,89.5585564 L27.6883533,89.5492369 Z M27.6883533,75.4116397 L86.3461467,75.4321425 L90.3562337,78.9679397 L87.3979728,81.5475619 C79.9550707,81.4748703 35.6736033,81.5587453 27.6883533,81.5680647 L27.6883533,75.4116397 Z M96.8520815,71.9839481 L25.3751576,71.9615814 C24.0932446,71.9615814 23.0640163,72.9047092 23.0640163,74.0603203 L23.0640163,90.9117397 C23.0640163,92.0654869 24.0932446,93.0086147 25.3751576,93.0086147 C25.4902011,93.0086147 25.6052446,92.9974314 25.7223424,92.9769286 C25.7798641,92.9992953 25.8476576,92.9992953 25.9195598,92.9992953 L96.8520815,93.0104786 L115.404897,82.4906897 L96.8520815,71.9839481 Z" id="Fill-15" fill="#FBAE2D"></path>
                    <path d="M75.3106011,45.9763608 C74.2259054,45.9763608 73.3343185,45.1786164 73.3343185,44.1926192 L73.3343185,33.4752581 C73.3343185,32.4911247 74.2259054,31.6933803 75.3106011,31.6933803 L101.986308,31.6933803 C103.075112,31.6933803 103.964645,32.4911247 103.964645,33.4752581 L103.964645,44.1926192 C103.964645,45.1786164 103.075112,45.9763608 101.986308,45.9763608 L75.3106011,45.9763608 Z M59.9974924,44.1926192 C59.9974924,45.1786164 59.1182315,45.9763608 58.0314815,45.9763608 L31.3434489,45.9763608 C30.2566989,45.9763608 29.3794924,45.1786164 29.3794924,44.1926192 L29.3794924,33.4752581 C29.3794924,32.4911247 30.2566989,31.6933803 31.3434489,31.6933803 L58.0314815,31.6933803 C59.1182315,31.6933803 59.9974924,32.4911247 59.9974924,33.4752581 L59.9974924,44.1926192 Z M101.986308,28.1165775 L31.3434489,28.1165775 C28.0852533,28.1165775 25.4371989,30.5191303 25.4371989,33.4752581 L25.4371989,62.5034636 C25.4371989,63.4894608 26.3144054,64.2965247 27.4032098,64.2965247 L40.4175033,64.2965247 C41.5021989,64.2965247 42.3937859,63.4894608 42.3937859,62.5034636 L42.3937859,56.6005275 C42.3937859,55.6126664 41.5021989,54.8056025 40.4175033,54.8056025 C39.3286989,54.8056025 38.4514924,55.6126664 38.4514924,56.6005275 L38.4514924,58.4867831 L30.8462967,58.4867831 L30.8462967,49.5512997 L58.0314815,49.5512997 C61.2794054,49.5512997 63.9377315,47.1506108 63.9377315,44.1926192 L63.9377315,34.3158719 L69.4043511,34.3158719 L69.4043511,44.1926192 C69.4043511,47.1506108 72.0524054,49.5512997 75.3106011,49.5512997 L102.495786,49.5512997 L102.495786,58.4867831 L94.8782641,58.4867831 L94.8782641,56.6005275 C94.8782641,55.6126664 94.0010576,54.8056025 92.9143076,54.8056025 C91.8275576,54.8056025 90.9482967,55.6126664 90.9482967,56.6005275 L90.9482967,62.5034636 C90.9482967,63.4894608 91.8275576,64.2965247 92.9143076,64.2965247 L105.928601,64.2965247 C107.017405,64.2965247 107.892558,63.4894608 107.892558,62.5034636 L107.892558,33.4752581 C107.892558,30.5191303 105.246558,28.1165775 101.986308,28.1165775 L101.986308,28.1165775 Z" id="Fill-17" fill="#FBAE2D"></path>
                </g>
            </g>
        </g>
    </g>
</svg>