<?xml version="1.0" encoding="UTF-8"?>
<svg width="45px" height="45px" viewBox="0 0 45 45" version="1.1" xmlns="http://www.w3.org/2000/svg" xmlns:xlink="http://www.w3.org/1999/xlink">
    <!-- Generator: Sketch 43.1 (39012) - http://www.bohemiancoding.com/sketch -->
    <title>twittericon</title>
    <desc>Created with Sketch.</desc>
    <defs></defs>
    <g id="Page-1" stroke="none" stroke-width="1" fill="none" fill-rule="evenodd">
        <g id="Desktop-HD-Copy-8" transform="translate(-322.000000, -1964.000000)" fill-rule="nonzero" fill="#000000">
            <g id="Social-Media-Icons" transform="translate(222.000000, 1964.000000)">
                <path d="M122.325021,0 C109.995275,1.81849793e-05 100.000054,9.99526401 100.000066,22.3250104 C100.000078,34.6547567 109.995319,44.6499829 122.325065,44.6499768 C134.654812,44.6499708 144.650043,34.6547348 144.650043,22.3249884 C144.650031,9.99522994 134.65478,-6.06166574e-06 122.325021,2.47857405e-15 L122.325021,0 Z M133.966379,18.3059341 C134.291482,25.5447494 128.893375,33.6153512 119.338349,33.6153512 C116.541241,33.6178762 113.802548,32.8150382 111.449498,31.3027628 C114.171234,31.6302629 116.911659,30.8638736 119.068651,29.1719854 C116.866879,29.1309705 114.934885,27.6943795 114.261707,25.5976409 C115.032744,25.7458542 115.827461,25.7158207 116.585112,25.509836 C114.160292,25.0181045 112.427341,22.8722129 112.457136,20.3982146 C113.171946,20.7958479 113.971521,21.0166802 114.789085,21.0422689 C112.527782,19.5311209 111.830437,16.5226173 113.196321,14.1707195 C115.809144,17.386743 119.665019,19.3415908 123.803485,19.5483293 C123.274536,17.2794364 124.334692,14.9380219 126.388733,13.8386674 C128.442773,12.739313 130.979038,13.155867 132.573546,14.8544561 C133.725865,14.6269852 134.830871,14.2043856 135.840909,13.6048829 C135.457712,14.7971653 134.653615,15.8091938 133.578797,16.4519561 C134.598882,16.3310287 135.595092,16.05795 136.534254,15.6418134 C135.843888,16.6757769 134.974252,17.5780072 133.966379,18.3059341 Z" id="twittericon"></path>
            </g>
        </g>
    </g>
</svg>