<?xml version="1.0" encoding="UTF-8"?>
<svg width="130px" height="123px" viewBox="0 0 130 123" version="1.1" xmlns="http://www.w3.org/2000/svg" xmlns:xlink="http://www.w3.org/1999/xlink">
    <!-- Generator: Sketch 41.2 (35397) - http://www.bohemiancoding.com/sketch -->
    <title>logoFP-02</title>
    <desc>Created with Sketch.</desc>
    <defs></defs>
    <g id="Page-1" stroke="none" stroke-width="1" fill="none" fill-rule="evenodd">
        <g id="Desktop-HD-Copy" transform="translate(-234.000000, -37.000000)">
            <g id="logoFP-02" transform="translate(222.000000, 37.000000)">
                <g id="LOGO">
                    <path d="M64.4832085,38.7036668 C68.1168575,48.4606214 65.9431568,58.8982936 56.7292612,62.9177699 C47.5153656,66.9696613 34.1487283,63.3715818 30.5150793,53.6146272 C26.8814303,43.8252576 33.7269654,29.8219208 42.940861,25.8024445 C52.1547567,21.7829683 60.8495596,28.9467123 64.4832085,38.7036668 L64.4832085,38.7036668 Z" id="Shape" fill="#DD1F26" opacity="0.75"></path>
                    <path d="M66.6893526,20.2918722 C66.6893526,20.3242874 65.2294043,23.4685551 63.0557036,28.2659945 C62.8286005,28.7198064 62.6339408,29.2060333 62.4068377,29.7246754 C61.0442193,32.6744524 59.4869412,36.1428714 57.7998899,39.8057813 C56.1452819,43.436276 54.393344,47.2612615 52.6414061,51.0214167 C49.9810559,56.7913101 47.3531491,62.4639581 45.2443349,66.9696613 C44.0114898,69.595287 42.940861,71.7995159 42.1297787,73.4851027 C40.6049438,76.6293705 37.8472638,81.4268099 35.9006662,84.9276441 C34.6353777,87.1642882 35.1544704,87.9422513 35.8357796,88.4933086 C36.3548723,88.9471204 37.3281711,88.9795355 38.1392535,88.7526296 C39.080109,88.4608934 40.0534078,87.7801757 40.4751707,86.6780612 C42.3244384,81.8806218 42.9084177,79.5467323 44.4008093,75.4624258 C45.5038813,72.4802337 46.3798503,69.8221929 47.3531491,66.9372462 C48.229118,64.408866 49.2348602,61.7184101 50.5974785,58.4768969 C51.9276536,55.3326292 53.6147049,51.7993799 53.6147049,51.7993799 L54.1013543,50.7945108 L58.8380753,40.8754806 L63.3801365,31.3778471 L63.6396829,30.8267899 L63.6721262,30.8267899 C63.7694561,30.599884 63.866786,30.3729781 63.9641158,30.1460721 L64.1587756,29.7570906 L65.7160537,26.6128228 C65.7160537,26.6128228 66.5920227,24.181688 68.2141874,25.3486327 C68.7657234,25.7376143 69.5119192,27.1314649 69.8039088,27.7797676 C69.9012387,27.9742583 69.9661253,28.1039189 69.9661253,28.1039189 C70.7123211,29.9191662 71.4909601,31.7668287 72.2371559,33.5820761 C72.7238053,34.7814359 73.242898,35.9807958 73.7295475,37.1801556 C77.6227428,46.5157135 81.4834948,55.8188562 85.3442469,65.154414 C87.6477208,70.6974015 89.9511947,76.2403889 92.2546686,81.7833764 C92.9035345,83.3393027 93.5524004,84.895229 94.2012662,86.4511553 L83.9816285,86.4511553 C83.5274224,87.9098362 84.5656078,87.6505151 85.2793603,87.6505151 L118.9555,87.6505151 L120.058572,86.4511553 C119.604366,86.4511553 116.132933,86.3214948 114.186336,86.4187402 C113.018377,86.4835704 112.434398,86.1594191 111.980192,85.0897198 C110.87712,82.4640941 109.774048,79.8708836 108.670976,77.245258 C105.913296,70.6974015 103.123172,64.1495449 100.365492,57.6016884 C98.6784409,53.5822121 96.9589463,49.5627358 95.2394517,45.5432595 C93.9092766,42.3989918 92.5466582,39.2223089 91.2164832,36.0780412 C89.0103391,30.859205 86.8041951,25.672784 84.5980511,20.4539479 C81.8728144,14.0357519 79.1475776,7.649971 76.4223409,1.23177499 C76.2601244,0.875208546 75.8708049,0.583472364 75.6112585,0.259321051 C75.2868256,0.583472364 74.8650628,0.875208546 74.7028463,1.26419012 C73.794434,3.37117366 72.9184651,5.4781572 72.0100529,7.58514073 C70.8745375,10.2755966 69.7390222,12.9336374 68.6035069,15.6240933 C67.9870843,17.2448499 67.3382185,18.768361 66.6893526,20.2918722 L66.6893526,20.2918722 Z M69.8363521,27.8121827 L67.5004349,22.1719498 L67.5004349,22.1719498 C68.279074,24.0520275 69.0577131,25.9321051 69.8363521,27.8121827 C69.8687954,27.9094281 69.933682,28.0390886 69.9661253,28.136334 L69.8363521,27.8121827 L69.8363521,27.8121827 Z" id="Shape" fill="#FFFFFF"></path>
                    <rect id="Rectangle-path" x="0.213042281" y="99.1903019" width="154.786958" height="21.6208926"></rect>
                    <text id="AnswerGalaxy" fill="#FFFFFF" font-family="Helvetica" font-size="20" font-weight="normal">
                        <tspan x="12.9257054" y="118">AnswerGalaxy</tspan>
                    </text>
                </g>
            </g>
        </g>
    </g>
</svg>