<?xml version="1.0" encoding="UTF-8"?>
<svg width="39px" height="24px" viewBox="0 0 39 24" version="1.1" xmlns="http://www.w3.org/2000/svg" xmlns:xlink="http://www.w3.org/1999/xlink">
    <!-- Generator: Sketch 41.2 (35397) - http://www.bohemiancoding.com/sketch -->
    <title>Shape</title>
    <desc>Created with Sketch.</desc>
    <defs></defs>
    <g id="Page-1" stroke="none" stroke-width="1" fill="none" fill-rule="evenodd">
        <g id="Desktop-HD-Copy" transform="translate(-1113.000000, -361.000000)" fill="#000000">
            <g id="Q1" transform="translate(220.000000, 283.000000)">
                <path d="M896.022897,94.4867398 L904.544652,101.463478 C906.417232,102.808366 909.025758,101.47032 909.025758,99.1649816 L909.025758,80.830037 C909.025758,79.2670595 907.758698,78 906.195721,78 L895.830037,78 C894.267059,78 893,79.2670595 893,80.830037 L893,88.5936091 C893,90.9301642 894.125087,93.1234642 896.022897,94.4867398 M915.052736,88.5936091 L915.052736,80.830037 C915.052736,79.2670595 916.319795,78 917.882773,78 L928.248456,78 C929.811434,78 931.078493,79.2670595 931.078493,80.830037 L931.078493,99.1649816 C931.078493,101.47032 928.469967,102.808366 926.597388,101.463478 L918.075633,95.3419943 C916.177823,93.9787187 915.052736,90.9301642 915.052736,88.5936091" id="Shape"></path>
            </g>
        </g>
    </g>
</svg>